<svg xmlns="http://www.w3.org/2000/svg" width="24" height="24" viewBox="0 0 24 24">
  <g id="Grupo_225" data-name="Grupo 225" transform="translate(-4766 7)">
    <g id="Grupo_224" data-name="Grupo 224" transform="translate(-14)">
      <path id="Subtração_5" data-name="Subtração 5" d="M17,24H7a7.008,7.008,0,0,1-7-7V7A7.008,7.008,0,0,1,7,0H17a7.008,7.008,0,0,1,7,7V17A7.008,7.008,0,0,1,17,24ZM7,1A6.007,6.007,0,0,0,1,7V17a6.007,6.007,0,0,0,6,6H17a6.007,6.007,0,0,0,6-6V7a6.007,6.007,0,0,0-6-6Z" transform="translate(4780 -7)" fill="#e67164"/>
      <g id="Instagram-icon" transform="translate(4777.31 -7.915)">
        <path id="Caminho_25" data-name="Caminho 25" d="M149.874,147.1a4.884,4.884,0,1,0,4.883,4.883,4.884,4.884,0,0,0-4.883-4.883Zm0,8.625h0Z" transform="translate(-135.3 -139.185)" fill="#e67164"/>
        <path id="Caminho_26" data-name="Caminho 26" d="M325.818,123.09a1.459,1.459,0,1,0,1.459,1.459,1.458,1.458,0,0,0-1.459-1.459Z" transform="translate(-304.514 -117.196)" fill="#e67164"/>
      </g>
    </g>
  </g>
</svg>
