<svg id="pagamento" xmlns="http://www.w3.org/2000/svg" width="54.887" height="54.885" viewBox="0 0 54.887 54.885">
  <path id="Caminho_71" data-name="Caminho 71" d="M66.444,53.06A27.443,27.443,0,1,0,93.887,80.5,27.443,27.443,0,0,0,66.444,53.06Zm0,50.667A23.224,23.224,0,1,1,89.668,80.5a23.224,23.224,0,0,1-23.224,23.224Z" transform="translate(-39 -53.06)" fill="#fff"/>
  <path id="Caminho_72" data-name="Caminho 72" d="M208.282,164.3a6.545,6.545,0,0,0-1.594-2.269,14.594,14.594,0,0,0-3.413-2.133q-4.489-2.189-4.489-4.218a2.646,2.646,0,0,1,.8-1.974,3.064,3.064,0,0,1,2.244-.783,7.874,7.874,0,0,1,4.654,1.577l1.271-3.605a8.339,8.339,0,0,0-4.411-1.449l.013-2.749h-3.685v2.911a6.66,6.66,0,0,0-3.7,2.237,5.909,5.909,0,0,0-1.376,3.862,6.869,6.869,0,0,0,.508,2.688,5.825,5.825,0,0,0,1.461,2.081,17.194,17.194,0,0,0,3.582,2.19,11.648,11.648,0,0,1,3.574,2.438,3.652,3.652,0,0,1,.937,2.386q0,2.543-3.686,2.543A8.491,8.491,0,0,1,196.1,168.3l-1.547,3.75a10.732,10.732,0,0,0,5.119,1.675v3.417h3.685v-3.7a7.447,7.447,0,0,0,4.024-2.31,5.841,5.841,0,0,0,1.449-3.935A7.376,7.376,0,0,0,208.282,164.3Z" transform="translate(-174.246 -134.477)" fill="#fff"/>
</svg>
