<svg xmlns="http://www.w3.org/2000/svg" xmlns:xlink="http://www.w3.org/1999/xlink" width="336.108" height="734.048" viewBox="0 0 336.108 734.048">
  <defs>
    <filter id="Caminho_249" x="0" y="-0.784" width="336.108" height="734.832" filterUnits="userSpaceOnUse">
      <feOffset input="SourceAlpha"/>
      <feGaussianBlur stdDeviation="1.5" result="blur"/>
      <feFlood flood-opacity="0.302"/>
      <feComposite operator="in" in2="blur"/>
      <feComposite in="SourceGraphic"/>
    </filter>
    <filter id="Caminho_242" x="0" y="0" width="336.108" height="734.048" filterUnits="userSpaceOnUse">
      <feOffset input="SourceAlpha"/>
      <feGaussianBlur stdDeviation="1.5" result="blur-2"/>
      <feFlood flood-opacity="0.302"/>
      <feComposite operator="in" in2="blur-2"/>
      <feComposite in="SourceGraphic"/>
    </filter>
    <clipPath id="clip-path">
      <g transform="matrix(1, 0, 0, 1, 0, 0)" filter="url(#Caminho_249)">
        <path id="Caminho_249-2" data-name="Caminho 249" d="M-772.237-4350.4s-1.277-5.413-2.608-7.332c-.414-.6-.7-1.007-.893-1.291h-1.427c-.166.177-.381.411-.66.717-1.2,1.318-2.881,7.905-2.881,7.905-.172.363-.4.544-.625.544s-.452-.181-.625-.544c0,0-1.279-5.413-2.609-7.332-.413-.6-.7-1.007-.892-1.291h-1.427c-.166.177-.381.411-.66.717-1.2,1.318-2.881,7.905-2.881,7.905-.172.363-.4.544-.625.544s-.452-.181-.625-.544c0,0-1.279-5.413-2.609-7.332-.414-.6-.7-1.007-.892-1.291H-796.6c-.166.177-.381.411-.661.717-1.2,1.318-2.88,7.905-2.88,7.905-.172.363-.4.544-.625.544s-.453-.181-.625-.544c0,0-1.279-5.413-2.609-7.332-.413-.6-.7-1.007-.892-1.291h-1.428c-.166.177-.381.411-.66.717-1.2,1.318-2.88,7.905-2.88,7.905-.173.363-.4.544-.625.544s-.453-.181-.625-.544c0,0-1.279-5.413-2.609-7.332-.413-.6-.7-1.007-.892-1.291h-1.428c-.166.177-.381.411-.66.717-1.2,1.318-2.88,7.905-2.88,7.905-.173.363-.4.544-.626.544s-.451-.181-.624-.544c0,0-1.278-5.413-2.609-7.332-.414-.6-.7-1.007-.893-1.291h-.8c-.166.177-.381.411-.661.717-1.2,1.318-2.88,7.905-2.88,7.905-.345.725-.9.725-1.249,0,0,0-1.279-5.413-2.609-7.332-.414-.6-.7-1.007-.892-1.291h-1.322c-.166.177-.381.411-.66.717-1.2,1.318-2.881,7.905-2.881,7.905-.172.363-.4.544-.625.544s-.452-.181-.625-.544c0,0-1.277-5.413-2.608-7.332-.413-.6-.7-1.007-.892-1.291h-1.323c-.166.177-.381.411-.66.717-1.2,1.318-2.881,7.905-2.881,7.905-.172.363-.4.544-.624.544s-.452-.181-.626-.544c0,0-1.277-5.413-2.608-7.332-.413-.6-.7-1.007-.892-1.291h-1.322c-.166.177-.381.411-.66.717-1.2,1.318-2.881,7.905-2.881,7.905-.172.363-.4.544-.625.544s-.452-.181-.625-.544c0,0-1.279-5.413-2.609-7.332-.413-.6-.7-1.007-.892-1.291h-1.322c-.166.177-.381.411-.66.717-1.2,1.318-2.881,7.905-2.881,7.905-.172.363-.4.544-.625.544s-.453-.181-.625-.544c0,0-1.278-5.413-2.609-7.332-.413-.6-.7-1.007-.892-1.291h-1.322c-.166.177-.381.411-.661.717-1.2,1.318-2.88,7.905-2.88,7.905-.173.363-.4.544-.626.544s-.451-.181-.623-.544c0,0-1.279-5.413-2.609-7.332-.413-.6-.7-1.007-.892-1.291h-1.322c-.166.177-.381.411-.66.717-1.2,1.318-2.881,7.905-2.881,7.905-.172.363-.4.544-.625.544s-.452-.181-.625-.544c0,0-1.277-5.413-2.608-7.332-.413-.6-.7-1.007-.892-1.291h-1.323c-.166.177-.381.411-.66.717-1.2,1.318-2.881,7.905-2.881,7.905-.172.363-.4.544-.624.544s-.452-.181-.626-.544c0,0-1.277-5.413-2.608-7.332-.413-.6-.7-1.007-.892-1.291h-1.323c-.166.177-.381.411-.661.717-1.2,1.318-2.88,7.905-2.88,7.905-.173.363-.4.544-.625.544s-.452-.181-.625-.544c0,0-1.279-5.413-2.609-7.332-.413-.6-.7-1.007-.892-1.291h-1.322c-.166.177-.381.411-.66.717-1.2,1.318-2.88,7.905-2.88,7.905-.173.363-.4.544-.626.544s-.453-.181-.625-.544c0,0-1.279-5.413-2.608-7.332-.413-.6-.7-1.007-.892-1.291h-1.323c-.166.177-.381.411-.661.717-1.2,1.318-2.88,7.905-2.88,7.905-.173.363-.4.544-.626.544s-.452-.181-.625-.544c0,0-1.277-5.413-2.608-7.332-.413-.6-.7-1.007-.892-1.291h-1.322c-.166.177-.381.411-.66.717-1.2,1.318-2.881,7.905-2.881,7.905-.172.363-.4.544-.625.544s-.452-.181-.625-.544c0,0-1.279-5.413-2.609-7.332-.413-.6-.7-1.007-.892-1.291h-1.322c-.166.177-.381.411-.66.717-1.2,1.318-2.881,7.905-2.881,7.905-.172.363-.4.544-.623.544s-.453-.181-.626-.544c0,0-1.279-5.413-2.609-7.332-.413-.6-.7-1.007-.892-1.291H-950.1c-.166.177-.381.411-.661.717-1.2,1.318-2.88,7.905-2.88,7.905-.173.363-.4.544-.625.544s-.452-.181-.625-.544c0,0-1.279-5.413-2.609-7.332-.414-.6-.7-1.007-.892-1.291h-1.322c-.166.177-.381.411-.66.717-1.2,1.318-2.881,7.905-2.881,7.905-.172.363-.4.544-.625.544s-.452-.181-.625-.544c0,0-1.277-5.413-2.608-7.332-.413-.6-.7-1.007-.893-1.291h-1.322c-.166.177-.381.411-.661.717-1.2,1.318-2.881,7.905-2.881,7.905-.171.363-.4.544-.624.544s-.453-.181-.626-.544c0,0-1.277-5.413-2.608-7.332-.413-.6-.7-1.007-.892-1.291h-1.322c-.166.177-.381.411-.66.717-1.2,1.318-2.881,7.905-2.881,7.905-.172.363-.4.544-.625.544s-.452-.181-.626-.544c0,0-1.277-5.413-2.608-7.332-.413-.6-.7-1.007-.892-1.291h-1.322c-.166.177-.381.411-.66.717-1.2,1.318-2.881,7.905-2.881,7.905-.172.363-.4.544-.623.544s-.453-.181-.626-.544c0,0-1.279-5.413-2.609-7.332-.413-.6-.7-1.007-.892-1.291h-1.322c-.166.177-.381.411-.66.717-1.2,1.318-2.88,7.905-2.88,7.905-.173.363-.4.544-.625.544s-.453-.181-.625-.544c0,0-1.278-5.413-2.609-7.332-.413-.6-.7-1.007-.892-1.291h-1.322c-.166.177-.381.411-.66.717-1.2,1.318-2.881,7.905-2.881,7.905-.172.363-.4.544-.625.544s-.452-.181-.625-.544c0,0-1.277-5.413-2.608-7.332-.414-.6-.7-1.007-.893-1.291h-1.323c-.166.177-.381.411-.66.717-1.2,1.318-2.881,7.905-2.881,7.905-.171.363-.4.544-.623.544s-.453-.181-.626-.544c0,0-1.277-5.413-2.608-7.332-.413-.6-.7-1.007-.892-1.291h-1.322c-.166.177-.381.411-.661.717-1.2,1.318-2.88,7.905-2.88,7.905-.172.363-.4.544-.625.544s-.452-.181-.625-.544c0,0-1.279-5.413-2.609-7.332-.413-.6-.7-1.007-.892-1.291h-.8c-.166.177-.381.411-.661.717-1.2,1.318-2.88,7.905-2.88,7.905-.345.725-.905.725-1.249,0,0,0-1.278-5.413-2.609-7.332-.414-.6-.7-1.007-.892-1.291h-1.427c-.166.177-.381.411-.66.717-1.2,1.318-2.88,7.905-2.88,7.905-.172.363-.4.544-.625.544s-.453-.181-.625-.544c0,0-1.279-5.413-2.609-7.332-.413-.6-.7-1.007-.892-1.291h-1.428c-.166.177-.381.411-.661.717-1.2,1.318-2.88,7.905-2.88,7.905-.173.363-.4.544-.625.544s-.453-.181-.625-.544c0,0-1.278-5.413-2.609-7.332-.414-.6-.7-1.007-.893-1.291h-1.427c-.166.177-.381.411-.66.717-1.2,1.318-2.88,7.905-2.88,7.905-.173.363-.4.544-.625.544s-.452-.181-.624-.544c0,0-1.279-5.413-2.609-7.332-.413-.6-.7-1.007-.892-1.291h-1.428c-.166.177-.381.411-.66.717-1.2,1.318-2.88,7.905-2.88,7.905-.173.363-.4.544-.626.544s-.453-.181-.625-.544c0,0-1.277-5.413-2.608-7.332-.413-.6-.7-1.007-.892-1.291h-1.428c-.166.177-.381.411-.66.717-1.2,1.318-2.88,7.905-2.88,7.905-.174.363-.4.544-.626.544s-.452-.181-.625-.544c0,0-1.277-5.413-2.608-7.332-.413-.6-.7-1.007-.892-1.291H-1094v-707.825h1.24c.173-.25.391-.567.668-.965,1.33-1.921,2.609-7.332,2.609-7.332.344-.725.9-.725,1.249,0,0,0,1.681,6.585,2.881,7.9l.36.394h1.952c.173-.25.391-.567.668-.965,1.33-1.921,2.608-7.332,2.608-7.332.345-.725.9-.725,1.249,0,0,0,1.682,6.585,2.881,7.9l.36.394h1.952c.173-.25.391-.567.668-.965,1.33-1.921,2.608-7.332,2.608-7.332.346-.725.9-.725,1.249,0,0,0,1.681,6.585,2.881,7.9l.36.394h1.952c.173-.25.392-.567.668-.965,1.33-1.921,2.608-7.332,2.608-7.332.345-.725.9-.725,1.25,0,0,0,1.68,6.585,2.88,7.9l.361.394h1.952c.173-.25.391-.567.668-.965,1.33-1.921,2.608-7.332,2.608-7.332.345-.725.9-.725,1.25,0,0,0,1.681,6.585,2.881,7.9l.36.394h1.951c.173-.25.391-.567.668-.965,1.332-1.921,2.609-7.332,2.609-7.332.345-.725.9-.725,1.249,0,0,0,1.68,6.585,2.881,7.9l.36.394h1.32c.172-.25.391-.567.668-.965,1.33-1.921,2.609-7.332,2.609-7.332.345-.725.9-.725,1.249,0,0,0,1.682,6.585,2.881,7.9l.36.394h1.846c.173-.25.391-.567.668-.965,1.33-1.921,2.608-7.332,2.608-7.332.346-.725.905-.725,1.25,0,0,0,1.68,6.585,2.88,7.9.134.147.254.278.36.394h1.846c.173-.25.391-.567.668-.965,1.33-1.921,2.609-7.332,2.609-7.332.344-.725.905-.725,1.25,0,0,0,1.68,6.585,2.881,7.9l.36.394h1.846c.173-.25.391-.567.668-.965,1.33-1.921,2.609-7.332,2.609-7.332.344-.725.9-.725,1.248,0,0,0,1.682,6.585,2.881,7.9l.36.394h1.847c.173-.25.391-.567.668-.965,1.33-1.921,2.608-7.332,2.608-7.332.345-.725.9-.725,1.249,0,0,0,1.682,6.585,2.881,7.9l.36.394h1.847c.173-.25.391-.567.668-.965,1.33-1.921,2.608-7.332,2.608-7.332.345-.725.9-.725,1.249,0,0,0,1.68,6.585,2.881,7.9l.36.394h1.846c.173-.25.391-.567.668-.965,1.33-1.921,2.609-7.332,2.609-7.332.344-.725.9-.725,1.249,0,0,0,1.68,6.585,2.88,7.9l.36.394h1.846c.173-.25.391-.567.668-.965,1.33-1.921,2.609-7.332,2.609-7.332.344-.725.9-.725,1.249,0,0,0,1.682,6.585,2.881,7.9l.36.394h1.846c.173-.25.392-.567.668-.965,1.33-1.921,2.608-7.332,2.608-7.332.346-.725.9-.725,1.25,0,0,0,1.68,6.585,2.881,7.9l.36.394h1.846c.173-.25.392-.567.668-.965,1.33-1.921,2.608-7.332,2.608-7.332.346-.725.9-.725,1.249,0,0,0,1.682,6.585,2.881,7.9l.36.394h1.847c.173-.25.392-.567.668-.965,1.33-1.921,2.608-7.332,2.608-7.332.346-.725.9-.725,1.249,0,0,0,1.68,6.585,2.88,7.9l.36.394h1.847c.173-.25.392-.567.668-.965,1.33-1.921,2.609-7.332,2.609-7.332.344-.725.9-.725,1.249,0,0,0,1.68,6.585,2.88,7.9l.36.394h1.847c.173-.25.391-.567.668-.965,1.33-1.921,2.608-7.332,2.608-7.332.345-.725.9-.725,1.249,0,0,0,1.681,6.585,2.881,7.9l.36.394h1.846c.173-.25.391-.567.668-.965,1.33-1.921,2.608-7.332,2.608-7.332.345-.725.9-.725,1.25,0,0,0,1.682,6.585,2.881,7.9l.36.394h1.846c.173-.25.391-.567.668-.965,1.33-1.921,2.608-7.332,2.608-7.332.345-.725.9-.725,1.25,0,0,0,1.68,6.585,2.88,7.9l.36.394h1.846c.173-.25.391-.567.668-.965,1.33-1.921,2.609-7.332,2.609-7.332.344-.725.9-.725,1.249,0,0,0,1.68,6.585,2.88,7.9l.36.394h1.847c.173-.25.391-.567.668-.965,1.33-1.921,2.608-7.332,2.608-7.332.345-.725.9-.725,1.249,0,0,0,1.682,6.585,2.881,7.9l.36.394h1.847c.173-.25.391-.567.668-.965,1.33-1.921,2.608-7.332,2.608-7.332.346-.725.9-.725,1.249,0,0,0,1.681,6.585,2.881,7.9l.36.394h1.847c.173-.25.391-.567.668-.965,1.33-1.921,2.608-7.332,2.608-7.332.346-.725.9-.725,1.249,0,0,0,1.68,6.585,2.881,7.9l.36.394h1.846c.173-.25.391-.567.668-.965,1.33-1.921,2.609-7.332,2.609-7.332.344-.725.9-.725,1.249,0,0,0,1.68,6.585,2.88,7.9l.36.394h1.846c.173-.25.391-.567.668-.965,1.33-1.921,2.609-7.332,2.609-7.332.344-.725.9-.725,1.249,0,0,0,1.68,6.585,2.881,7.9l.36.394h1.846c.173-.25.392-.567.668-.965,1.33-1.921,2.608-7.332,2.608-7.332.345-.725.9-.725,1.25,0,0,0,1.68,6.585,2.88,7.9l.361.394h1.32c.173-.25.392-.567.668-.965,1.33-1.921,2.608-7.332,2.608-7.332.346-.725.905-.725,1.251,0,0,0,1.68,6.585,2.88,7.9l.36.394h1.952c.173-.25.392-.567.668-.965,1.33-1.921,2.608-7.332,2.608-7.332.346-.725.9-.725,1.25,0,0,0,1.68,6.585,2.881,7.9l.36.394h1.951c.173-.25.391-.567.668-.965,1.33-1.921,2.609-7.332,2.609-7.332.346-.725.9-.725,1.249,0,0,0,1.682,6.585,2.881,7.9l.36.394h1.952c.173-.25.391-.567.668-.965,1.33-1.921,2.608-7.332,2.608-7.332.346-.725.9-.725,1.249,0,0,0,1.682,6.585,2.881,7.9l.36.394h1.952c.173-.25.391-.567.668-.965,1.33-1.921,2.608-7.332,2.608-7.332.346-.725.9-.725,1.249,0,0,0,1.682,6.585,2.881,7.9l.36.394h1.952c.173-.25.391-.567.668-.965,1.33-1.921,2.608-7.332,2.608-7.332.346-.725.9-.725,1.25,0,0,0,1.68,6.585,2.88,7.9l.36.394h.651v.7a1.417,1.417,0,0,0,.2.2c-.068.041-.136.085-.2.13v706.1c.067.045.134.088.2.131,0,0,0-.009-.2.2v.372h-.352c-.166.177-.381.411-.66.717-1.2,1.318-2.881,7.905-2.881,7.905-.172.363-.4.544-.624.544S-772.064-4350.036-772.237-4350.4Z" transform="translate(1094 4892.87)" fill="#fff"/>
      </g>
    </clipPath>
  </defs>
  <g id="base" transform="translate(4.5 186.536)">
    <g transform="matrix(1, 0, 0, 1, -4.5, -186.54)" filter="url(#Caminho_242)">
      <path id="Caminho_242-2" data-name="Caminho 242" d="M-772.237-4351.181s-1.277-5.407-2.608-7.324c-.414-.6-.7-1.006-.893-1.289h-1.427c-.166.177-.381.411-.66.717-1.2,1.316-2.881,7.9-2.881,7.9-.172.363-.4.542-.625.542s-.452-.179-.625-.542c0,0-1.279-5.407-2.609-7.324-.413-.6-.7-1.006-.892-1.289h-1.427c-.166.177-.381.411-.66.717-1.2,1.316-2.881,7.9-2.881,7.9-.172.363-.4.542-.625.542s-.452-.179-.625-.542c0,0-1.279-5.407-2.609-7.324-.414-.6-.7-1.006-.892-1.289H-796.6c-.166.177-.381.411-.661.717-1.2,1.316-2.88,7.9-2.88,7.9-.172.363-.4.542-.625.542s-.453-.179-.625-.542c0,0-1.279-5.407-2.609-7.324-.413-.6-.7-1.006-.892-1.289h-1.428c-.166.177-.381.411-.66.717-1.2,1.316-2.88,7.9-2.88,7.9-.173.363-.4.542-.625.542s-.453-.179-.625-.542c0,0-1.279-5.407-2.609-7.324-.413-.6-.7-1.006-.892-1.289h-1.428c-.166.177-.381.411-.66.717-1.2,1.316-2.88,7.9-2.88,7.9-.173.363-.4.542-.626.542s-.451-.179-.624-.542c0,0-1.278-5.407-2.609-7.324-.414-.6-.7-1.006-.893-1.289h-.8c-.166.177-.381.411-.661.717-1.2,1.316-2.88,7.9-2.88,7.9-.345.724-.9.724-1.249,0,0,0-1.279-5.407-2.609-7.324-.414-.6-.7-1.006-.892-1.289h-1.322c-.166.177-.381.411-.66.717-1.2,1.316-2.881,7.9-2.881,7.9-.172.363-.4.542-.625.542s-.452-.179-.625-.542c0,0-1.277-5.407-2.608-7.324-.413-.6-.7-1.006-.892-1.289h-1.323c-.166.177-.381.411-.66.717-1.2,1.316-2.881,7.9-2.881,7.9-.172.363-.4.542-.624.542s-.452-.179-.626-.542c0,0-1.277-5.407-2.608-7.324-.413-.6-.7-1.006-.892-1.289h-1.322c-.166.177-.381.411-.66.717-1.2,1.316-2.881,7.9-2.881,7.9-.172.363-.4.542-.625.542s-.452-.179-.625-.542c0,0-1.279-5.407-2.609-7.324-.413-.6-.7-1.006-.892-1.289h-1.322c-.166.177-.381.411-.66.717-1.2,1.316-2.881,7.9-2.881,7.9-.172.363-.4.542-.625.542s-.453-.179-.625-.542c0,0-1.278-5.407-2.609-7.324-.413-.6-.7-1.006-.892-1.289h-1.322c-.166.177-.381.411-.661.717-1.2,1.316-2.88,7.9-2.88,7.9-.173.363-.4.542-.626.542s-.451-.179-.623-.542c0,0-1.279-5.407-2.609-7.324-.413-.6-.7-1.006-.892-1.289h-1.322c-.166.177-.381.411-.66.717-1.2,1.316-2.881,7.9-2.881,7.9-.172.363-.4.542-.625.542s-.452-.179-.625-.542c0,0-1.277-5.407-2.608-7.324-.413-.6-.7-1.006-.892-1.289h-1.323c-.166.177-.381.411-.66.717-1.2,1.316-2.881,7.9-2.881,7.9-.172.363-.4.542-.624.542s-.452-.179-.626-.542c0,0-1.277-5.407-2.608-7.324-.413-.6-.7-1.006-.892-1.289h-1.323c-.166.177-.381.411-.661.717-1.2,1.316-2.88,7.9-2.88,7.9-.173.363-.4.542-.625.542s-.452-.179-.625-.542c0,0-1.279-5.407-2.609-7.324-.413-.6-.7-1.006-.892-1.289h-1.322c-.166.177-.381.411-.66.717-1.2,1.316-2.88,7.9-2.88,7.9-.173.363-.4.542-.626.542s-.453-.179-.625-.542c0,0-1.279-5.407-2.608-7.324-.413-.6-.7-1.006-.892-1.289h-1.323c-.166.177-.381.411-.661.717-1.2,1.316-2.88,7.9-2.88,7.9-.173.363-.4.542-.626.542s-.452-.179-.625-.542c0,0-1.277-5.407-2.608-7.324-.413-.6-.7-1.006-.892-1.289h-1.322c-.166.177-.381.411-.66.717-1.2,1.316-2.881,7.9-2.881,7.9-.172.363-.4.542-.625.542s-.452-.179-.625-.542c0,0-1.279-5.407-2.609-7.324-.413-.6-.7-1.006-.892-1.289h-1.322c-.166.177-.381.411-.66.717-1.2,1.316-2.881,7.9-2.881,7.9-.172.363-.4.542-.623.542s-.453-.179-.626-.542c0,0-1.279-5.407-2.609-7.324-.413-.6-.7-1.006-.892-1.289H-950.1c-.166.177-.381.411-.661.717-1.2,1.316-2.88,7.9-2.88,7.9-.173.363-.4.542-.625.542s-.452-.179-.625-.542c0,0-1.279-5.407-2.609-7.324-.414-.6-.7-1.006-.892-1.289h-1.322c-.166.177-.381.411-.66.717-1.2,1.316-2.881,7.9-2.881,7.9-.172.363-.4.542-.625.542s-.452-.179-.625-.542c0,0-1.277-5.407-2.608-7.324-.413-.6-.7-1.006-.893-1.289h-1.322c-.166.177-.381.411-.661.717-1.2,1.316-2.881,7.9-2.881,7.9-.171.363-.4.542-.624.542s-.453-.179-.626-.542c0,0-1.277-5.407-2.608-7.324-.413-.6-.7-1.006-.892-1.289h-1.322c-.166.177-.381.411-.66.717-1.2,1.316-2.881,7.9-2.881,7.9-.172.363-.4.542-.625.542s-.452-.179-.626-.542c0,0-1.277-5.407-2.608-7.324-.413-.6-.7-1.006-.892-1.289h-1.322c-.166.177-.381.411-.66.717-1.2,1.316-2.881,7.9-2.881,7.9-.172.363-.4.542-.623.542s-.453-.179-.626-.542c0,0-1.279-5.407-2.609-7.324-.413-.6-.7-1.006-.892-1.289h-1.322c-.166.177-.381.411-.66.717-1.2,1.316-2.88,7.9-2.88,7.9-.173.363-.4.542-.625.542s-.453-.179-.625-.542c0,0-1.278-5.407-2.609-7.324-.413-.6-.7-1.006-.892-1.289h-1.322c-.166.177-.381.411-.66.717-1.2,1.316-2.881,7.9-2.881,7.9-.172.363-.4.542-.625.542s-.452-.179-.625-.542c0,0-1.277-5.407-2.608-7.324-.414-.6-.7-1.006-.893-1.289h-1.323c-.166.177-.381.411-.66.717-1.2,1.316-2.881,7.9-2.881,7.9-.171.363-.4.542-.623.542s-.453-.179-.626-.542c0,0-1.277-5.407-2.608-7.324-.413-.6-.7-1.006-.892-1.289h-1.322c-.166.177-.381.411-.661.717-1.2,1.316-2.88,7.9-2.88,7.9-.172.363-.4.542-.625.542s-.452-.179-.625-.542c0,0-1.279-5.407-2.609-7.324-.413-.6-.7-1.006-.892-1.289h-.8c-.166.177-.381.411-.661.717-1.2,1.316-2.88,7.9-2.88,7.9-.345.724-.905.724-1.249,0,0,0-1.278-5.407-2.609-7.324-.414-.6-.7-1.006-.892-1.289h-1.427c-.166.177-.381.411-.66.717-1.2,1.316-2.88,7.9-2.88,7.9-.172.363-.4.542-.625.542s-.453-.179-.625-.542c0,0-1.279-5.407-2.609-7.324-.413-.6-.7-1.006-.892-1.289h-1.428c-.166.177-.381.411-.661.717-1.2,1.316-2.88,7.9-2.88,7.9-.173.363-.4.542-.625.542s-.453-.179-.625-.542c0,0-1.278-5.407-2.609-7.324-.414-.6-.7-1.006-.893-1.289h-1.427c-.166.177-.381.411-.66.717-1.2,1.316-2.88,7.9-2.88,7.9-.173.363-.4.542-.625.542s-.452-.179-.624-.542c0,0-1.279-5.407-2.609-7.324-.413-.6-.7-1.006-.892-1.289h-1.428c-.166.177-.381.411-.66.717-1.2,1.316-2.88,7.9-2.88,7.9-.173.363-.4.542-.626.542s-.453-.179-.625-.542c0,0-1.277-5.407-2.608-7.324-.413-.6-.7-1.006-.892-1.289h-1.428c-.166.177-.381.411-.66.717-1.2,1.316-2.88,7.9-2.88,7.9-.174.363-.4.542-.626.542s-.452-.179-.625-.542c0,0-1.277-5.407-2.608-7.324-.413-.6-.7-1.006-.892-1.289H-1094v-707.061h1.24c.173-.25.391-.566.668-.964,1.33-1.919,2.609-7.324,2.609-7.324.344-.724.9-.724,1.249,0,0,0,1.681,6.578,2.881,7.9l.36.393h1.952l.668-.964c1.33-1.919,2.608-7.324,2.608-7.324.345-.724.9-.724,1.249,0,0,0,1.682,6.578,2.881,7.9l.36.393h1.952l.668-.964c1.33-1.919,2.608-7.324,2.608-7.324.346-.724.9-.724,1.249,0,0,0,1.681,6.578,2.881,7.9.134.147.254.277.36.393h1.952l.668-.964c1.33-1.919,2.608-7.324,2.608-7.324.345-.724.9-.724,1.25,0,0,0,1.68,6.578,2.88,7.9l.361.393h1.952l.668-.964c1.33-1.919,2.608-7.324,2.608-7.324.345-.724.9-.724,1.25,0,0,0,1.681,6.578,2.881,7.9l.36.393h1.951c.173-.25.391-.566.668-.964,1.332-1.919,2.609-7.324,2.609-7.324.345-.724.9-.724,1.249,0,0,0,1.68,6.578,2.881,7.9l.36.393h1.32c.172-.25.391-.566.668-.964,1.33-1.919,2.609-7.324,2.609-7.324.345-.724.9-.724,1.249,0,0,0,1.682,6.578,2.881,7.9l.36.393h1.846c.173-.25.391-.566.668-.964,1.33-1.919,2.608-7.324,2.608-7.324.346-.724.905-.724,1.25,0,0,0,1.68,6.578,2.88,7.9l.36.393h1.846c.173-.25.391-.566.668-.964,1.33-1.919,2.609-7.324,2.609-7.324.344-.724.905-.724,1.25,0,0,0,1.68,6.578,2.881,7.9l.36.393h1.846c.173-.25.391-.566.668-.964,1.33-1.919,2.609-7.324,2.609-7.324.344-.724.9-.724,1.248,0,0,0,1.682,6.578,2.881,7.9l.36.393h1.847c.173-.25.391-.566.668-.964,1.33-1.919,2.608-7.324,2.608-7.324.345-.724.9-.724,1.249,0,0,0,1.682,6.578,2.881,7.9l.36.393h1.847c.173-.25.391-.566.668-.964,1.33-1.919,2.608-7.324,2.608-7.324.345-.724.9-.724,1.249,0,0,0,1.68,6.578,2.881,7.9l.36.393h1.846l.668-.964c1.33-1.919,2.609-7.324,2.609-7.324.344-.724.9-.724,1.249,0,0,0,1.68,6.578,2.88,7.9l.36.393h1.846c.173-.25.391-.566.668-.964,1.33-1.919,2.609-7.324,2.609-7.324.344-.724.9-.724,1.249,0,0,0,1.682,6.578,2.881,7.9l.36.393h1.846l.668-.964c1.33-1.919,2.608-7.324,2.608-7.324.346-.724.9-.724,1.25,0,0,0,1.68,6.578,2.881,7.9l.36.393h1.846l.668-.964c1.33-1.919,2.608-7.324,2.608-7.324.346-.724.9-.724,1.249,0,0,0,1.682,6.578,2.881,7.9l.36.393h1.847c.173-.25.392-.566.668-.964,1.33-1.919,2.608-7.324,2.608-7.324.346-.724.9-.724,1.249,0,0,0,1.68,6.578,2.88,7.9l.36.393h1.847l.668-.964c1.33-1.919,2.609-7.324,2.609-7.324.344-.724.9-.724,1.249,0,0,0,1.68,6.578,2.88,7.9l.36.393h1.847l.668-.964c1.33-1.919,2.608-7.324,2.608-7.324.345-.724.9-.724,1.249,0,0,0,1.681,6.578,2.881,7.9l.36.393h1.846l.668-.964c1.33-1.919,2.608-7.324,2.608-7.324.345-.724.9-.724,1.25,0,0,0,1.682,6.578,2.881,7.9l.36.393h1.846c.173-.25.391-.566.668-.964,1.33-1.919,2.608-7.324,2.608-7.324.345-.724.9-.724,1.25,0,0,0,1.68,6.578,2.88,7.9l.36.393h1.846l.668-.964c1.33-1.919,2.609-7.324,2.609-7.324.344-.724.9-.724,1.249,0,0,0,1.68,6.578,2.88,7.9l.36.393h1.847c.173-.25.391-.566.668-.964,1.33-1.919,2.608-7.324,2.608-7.324.345-.724.9-.724,1.249,0,0,0,1.682,6.578,2.881,7.9l.36.393h1.847l.668-.964c1.33-1.919,2.608-7.324,2.608-7.324.346-.724.9-.724,1.249,0,0,0,1.681,6.578,2.881,7.9l.36.393h1.847c.173-.25.391-.566.668-.964,1.33-1.919,2.608-7.324,2.608-7.324.346-.724.9-.724,1.249,0,0,0,1.68,6.578,2.881,7.9l.36.393h1.846l.668-.964c1.33-1.919,2.609-7.324,2.609-7.324.344-.724.9-.724,1.249,0,0,0,1.68,6.578,2.88,7.9l.36.393h1.846c.173-.25.391-.566.668-.964,1.33-1.919,2.609-7.324,2.609-7.324.344-.724.9-.724,1.249,0,0,0,1.68,6.578,2.881,7.9l.36.393h1.846c.173-.25.392-.566.668-.964,1.33-1.919,2.608-7.324,2.608-7.324.345-.724.9-.724,1.25,0,0,0,1.68,6.578,2.88,7.9l.361.393h1.32l.668-.964c1.33-1.919,2.608-7.324,2.608-7.324.346-.724.905-.724,1.251,0,0,0,1.68,6.578,2.88,7.9l.36.393h1.952l.668-.964c1.33-1.919,2.608-7.324,2.608-7.324.346-.724.9-.724,1.25,0,0,0,1.68,6.578,2.881,7.9l.36.393h1.951l.668-.964c1.33-1.919,2.609-7.324,2.609-7.324.346-.724.9-.724,1.249,0,0,0,1.682,6.578,2.881,7.9l.36.393h1.952l.668-.964c1.33-1.919,2.608-7.324,2.608-7.324.346-.724.9-.724,1.249,0,0,0,1.682,6.578,2.881,7.9l.36.393h1.952l.668-.964c1.33-1.919,2.608-7.324,2.608-7.324.346-.724.9-.724,1.249,0,0,0,1.682,6.578,2.881,7.9l.36.393h1.952c.173-.25.391-.566.668-.964,1.33-1.919,2.608-7.324,2.608-7.324.346-.724.9-.724,1.25,0,0,0,1.68,6.578,2.88,7.9l.36.393h.651v.7c.2.2.2.2.2.2-.068.041-.136.086-.2.131v705.338c.067.046.134.089.2.131,0,0,0-.009-.2.2v.372h-.352c-.166.177-.381.411-.66.717-1.2,1.316-2.881,7.9-2.881,7.9-.172.363-.4.542-.624.542S-772.064-4350.818-772.237-4351.181Z" transform="translate(1098.5 5080.19)" fill="#fff"/>
    </g>
    <g id="Grupo_de_máscara_4" data-name="Grupo de máscara 4" clip-path="url(#clip-path)">
      <path id="Caminho_248" data-name="Caminho 248" d="M897.859,1251.833a32.009,32.009,0,0,1-6.4-.637C714.213,1215.727,595.13,1112.853,595.13,995.239c0-65.667,37.2-125.893,99.283-172.6-62.8-47.079-99.283-107.681-99.283-173.263,0-143.382,177.993-261.255,405.209-268.291a32.412,32.412,0,0,1,24.822,10.133,36.185,36.185,0,0,1,10.287,25.568v303.18c-.061,19.205-14.538,34.942-32.819,35.673-100.054,2.894-189.933,27.535-257.141,66.217,44.124,25.6,97.9,45.371,158.466,56.694,16.2,3.012,27.988,17.82,27.939,35.092V1216.1c-.018,19.727-15.244,35.715-34.033,35.729ZM718.378,839.119c-59.9,42.012-95.89,96.592-95.89,156.12,0,103.4,110.148,194.922,274.1,227.727a6.475,6.475,0,0,0,5.512-1.49,7.192,7.192,0,0,0,2.433-5.4V913.647a6.855,6.855,0,0,0-5.24-6.862C828.8,893.668,767.3,870.214,718.378,839.119Zm283.01-429.277h-.218c-212.355,6.6-378.656,111.821-378.656,239.568,0,58.112,36.212,113.211,97.132,155.919,72.642-45.835,171.677-75.282,282.349-78.38A6.733,6.733,0,0,0,1008.2,720V416.762a7.13,7.13,0,0,0-1.987-4.951A6.867,6.867,0,0,0,1001.388,409.842Z" transform="translate(-570.509 -545.401)" fill="#dd5571" opacity="0.03"/>
    </g>
  </g>
</svg>
