<svg id="logo-sem-slogan" xmlns="http://www.w3.org/2000/svg" width="82.371" height="34.256" viewBox="0 0 82.371 34.256">
  <path id="Caminho_8" data-name="Caminho 8" d="M607.634,415.316a1.389,1.389,0,0,1-.264-.025c-7.321-1.4-12.239-5.442-12.239-10.069,0-2.583,1.537-4.953,4.1-6.79-2.594-1.852-4.1-4.236-4.1-6.816,0-5.641,7.352-10.278,16.736-10.555a1.374,1.374,0,0,1,1.025.4,1.389,1.389,0,0,1,.425,1.006v11.927a1.409,1.409,0,0,1-1.356,1.4,23.792,23.792,0,0,0-10.62,2.6,21.32,21.32,0,0,0,6.545,2.23,1.4,1.4,0,0,1,1.154,1.381v11.9a1.407,1.407,0,0,1-1.406,1.406ZM600.22,399.08c-2.474,1.653-3.96,3.8-3.96,6.142,0,4.068,4.549,7.668,11.321,8.959a.277.277,0,0,0,.328-.271v-11.9a.272.272,0,0,0-.216-.27A21.842,21.842,0,0,1,600.22,399.08Zm11.689-16.888H611.9c-8.771.26-15.639,4.4-15.639,9.424,0,2.286,1.5,4.454,4.012,6.134a24.2,24.2,0,0,1,11.662-3.083.27.27,0,0,0,.256-.273V382.464a.274.274,0,0,0-.082-.195A.292.292,0,0,0,611.909,382.192Z" transform="translate(-595.13 -381.06)" fill="#e67164"/>
  <path id="Caminho_9" data-name="Caminho 9" d="M1068.323,515.777a4.307,4.307,0,0,0-4.5-4.07,4.712,4.712,0,0,0-3.341,1.35V511.65h-1.161v10.684h1.161V518.5a4.714,4.714,0,0,0,3.341,1.345A4.305,4.305,0,0,0,1068.323,515.777Zm-1.161,0a3.373,3.373,0,1,1-3.341-2.909A3.152,3.152,0,0,1,1067.163,515.777Z" transform="translate(-1006.446 -496.775)" fill="#e67164"/>
  <path id="Caminho_10" data-name="Caminho 10" d="M1161.252,512.07v1.359a4.715,4.715,0,0,0-3.341-1.345,4.091,4.091,0,1,0,0,8.14,4.712,4.712,0,0,0,3.341-1.345v1.266h1.161V512.07Zm-3.341,6.988a2.937,2.937,0,1,1,3.341-2.909A3.151,3.151,0,0,1,1157.911,519.058Z" transform="translate(-1089.819 -497.147)" fill="#e67164"/>
  <path id="Caminho_11" data-name="Caminho 11" d="M867.592,519.8a4.091,4.091,0,1,1,4.5-4.07A4.3,4.3,0,0,1,867.592,519.8Zm0-6.979a2.937,2.937,0,1,0,3.341,2.909A3.152,3.152,0,0,0,867.592,512.821Z" transform="translate(-832.568 -496.784)" fill="#e67164"/>
  <path id="Caminho_12" data-name="Caminho 12" d="M967.491,515.364A4.346,4.346,0,0,0,963,511.589a4.712,4.712,0,0,0-3.341,1.345V511.58H958.5V519.7h1.161v-4.046a3.373,3.373,0,0,1,6.682,0V519.7H967.5v-4.341Z" transform="translate(-917.11 -496.713)" fill="#e67164"/>
  <path id="Caminho_13" data-name="Caminho 13" d="M792.361,520.289a4.091,4.091,0,1,1,0-8.14,4.784,4.784,0,0,1,2.962,1.008l-.721.911a3.625,3.625,0,0,0-2.246-.756,2.937,2.937,0,1,0,0,5.818,3.664,3.664,0,0,0,1.9-.521l.6.993A4.828,4.828,0,0,1,792.361,520.289Z" transform="translate(-765.907 -497.218)" fill="#e67164"/>
  <path id="Caminho_14" data-name="Caminho 14" d="M1251.879,522.273h1.293l5.3-10.693h-1.293l-2.722,5.5-2.409-5.5h-1.264l3,6.851Z" transform="translate(-1176.098 -496.713)" fill="#e67164"/>
</svg>
