<svg xmlns="http://www.w3.org/2000/svg" xmlns:xlink="http://www.w3.org/1999/xlink" width="98.595" height="99.826" viewBox="0 0 98.595 99.826">
  <defs>
    <filter id="Ret창ngulo_84" x="0" y="0" width="98.595" height="99.826" filterUnits="userSpaceOnUse">
      <feOffset dy="1" input="SourceAlpha"/>
      <feGaussianBlur stdDeviation="3.5" result="blur"/>
      <feFlood flood-opacity="0.11"/>
      <feComposite operator="in" in2="blur"/>
      <feComposite in="SourceGraphic"/>
    </filter>
  </defs>
  <g id="btn-imprimir" transform="translate(10.5 9.5)">
    <g transform="matrix(1, 0, 0, 1, -10.5, -9.5)" filter="url(#Ret창ngulo_84)">
      <rect id="Ret창ngulo_84-2" data-name="Ret창ngulo 84" width="77.595" height="78.826" rx="38.797" transform="translate(10.5 9.5)" fill="#fff"/>
    </g>
    <g id="Icon_feather-printer" data-name="Icon feather-printer" transform="translate(27.097 27.097)">
      <path id="Caminho_250" data-name="Caminho 250" d="M9,11.207V3H23.07v8.207" transform="translate(-4.31 -3)" fill="none" stroke="#e67164" stroke-linecap="round" stroke-linejoin="round" stroke-width="3"/>
      <path id="Caminho_251" data-name="Caminho 251" d="M7.69,24.052H5.345A2.345,2.345,0,0,1,3,21.707V15.845A2.345,2.345,0,0,1,5.345,13.5H24.1a2.345,2.345,0,0,1,2.345,2.345v5.862A2.345,2.345,0,0,1,24.1,24.052H21.76" transform="translate(-3 -5.293)" fill="none" stroke="#e67164" stroke-linecap="round" stroke-linejoin="round" stroke-width="3"/>
      <path id="Caminho_252" data-name="Caminho 252" d="M9,21H23.07v9.38H9Z" transform="translate(-4.31 -6.93)" fill="none" stroke="#e67164" stroke-linecap="round" stroke-linejoin="round" stroke-width="3"/>
    </g>
  </g>
</svg>
