<svg xmlns="http://www.w3.org/2000/svg" width="405.335" height="763.5" viewBox="0 0 405.335 763.5">
  <path id="Caminho_227" data-name="Caminho 227" d="M873.807,1144.56a30.91,30.91,0,0,1-5.89-.558C704.751,1112.9,595.13,1022.7,595.13,919.576c0-57.577,34.248-110.384,91.4-151.333-57.808-41.28-91.4-94.415-91.4-151.918,0-125.719,163.851-229.07,373.015-235.239a30.612,30.612,0,0,1,22.849,8.885,30.952,30.952,0,0,1,9.47,22.418V678.219A31.406,31.406,0,0,1,970.253,709.5c-92.1,2.538-174.842,24.143-236.711,58.059,40.618,22.444,90.125,39.782,145.875,49.71a31.153,31.153,0,0,1,25.719,30.769v265.2a31.354,31.354,0,0,1-31.329,31.328ZM708.586,782.689c-55.142,36.836-88.272,84.692-88.272,136.887,0,90.658,101.4,170.909,252.324,199.672a6.169,6.169,0,0,0,7.313-6.042V848.036a6.069,6.069,0,0,0-4.824-6.016C810.237,830.518,753.623,809.954,708.586,782.689ZM969.11,406.3h-.2c-195.483,5.788-348.571,98.046-348.571,210.054,0,50.953,33.335,99.264,89.415,136.711,66.87-40.188,158.037-66.008,259.916-68.724a6.019,6.019,0,0,0,5.714-6.093V412.363a6.1,6.1,0,0,0-1.829-4.341A6.489,6.489,0,0,0,969.11,406.3Z" transform="translate(-595.13 -381.06)" fill="#dd5571" opacity="0.1"/>
</svg>
