<svg xmlns="http://www.w3.org/2000/svg" width="24" height="24" viewBox="0 0 24 24">
  <g id="Grupo_228" data-name="Grupo 228" transform="translate(-4678 7)">
    <path id="Subtração_2" data-name="Subtração 2" d="M17,24H7a7.008,7.008,0,0,1-7-7V7A7.008,7.008,0,0,1,7,0H17a7.008,7.008,0,0,1,7,7V17A7.008,7.008,0,0,1,17,24ZM7,1A6.007,6.007,0,0,0,1,7V17a6.007,6.007,0,0,0,6,6H17a6.007,6.007,0,0,0,6-6V7a6.007,6.007,0,0,0-6-6Z" transform="translate(4678 -7)" fill="#e67164"/>
    <g id="facebook-icon" transform="translate(4677.022 -8.228)">
      <path id="Caminho_19" data-name="Caminho 19" d="M205.12,149.2l-.01.175-.126,2.166h-2.108v7.108h-2.913v-7.108h-1.4V149.2h1.4v-1.7a2.914,2.914,0,0,1,2.913-2.913h2.16v2.341h-2.161v2.27Z" transform="translate(-188.582 -138.362)" fill="#e67164"/>
    </g>
  </g>
</svg>
