<svg xmlns="http://www.w3.org/2000/svg" width="24" height="24" viewBox="0 0 24 24">
  <g id="Grupo_226" data-name="Grupo 226" transform="translate(-4736 7)">
    <path id="Subtração_4" data-name="Subtração 4" d="M17,24H7a7.008,7.008,0,0,1-7-7V7A7.008,7.008,0,0,1,7,0H17a7.008,7.008,0,0,1,7,7V17A7.008,7.008,0,0,1,17,24ZM7,1A6.007,6.007,0,0,0,1,7V17a6.007,6.007,0,0,0,6,6H17a6.007,6.007,0,0,0,6-6V7a6.007,6.007,0,0,0-6-6Z" transform="translate(4736 -7)" fill="#e67164"/>
    <g id="In-icon" transform="translate(4734.65 -8.315)">
      <path id="Caminho_23" data-name="Caminho 23" d="M.789-5.779H2.666V.553H.789Zm.932-.932a1.123,1.123,0,0,1-.779-.274.908.908,0,0,1-.306-.709.888.888,0,0,1,.306-.7,1.14,1.14,0,0,1,.779-.268,1.134,1.134,0,0,1,.785.268.9.9,0,0,1,.3.7.917.917,0,0,1-.3.709A1.118,1.118,0,0,1,1.721-6.711Zm1.443.932H4.7l.128.8h.051a5.106,5.106,0,0,1,.894-.67A2.188,2.188,0,0,1,6.9-5.932a1.691,1.691,0,0,1,1.5.677,3.272,3.272,0,0,1,.466,1.877V.553H6.994V-3.136a1.712,1.712,0,0,0-.185-.945.683.683,0,0,0-.594-.255,1.133,1.133,0,0,0-.613.16,3.587,3.587,0,0,0-.562.453V.553H3.164Z" transform="translate(8.713 16.979)" fill="#e67164"/>
    </g>
  </g>
</svg>
