<svg id="logo" xmlns="http://www.w3.org/2000/svg" width="86.082" height="35.799" viewBox="0 0 86.082 35.799">
  <g id="Grupo_107" data-name="Grupo 107">
    <path id="Caminho_8" data-name="Caminho 8" d="M608.2,416.859a1.446,1.446,0,0,1-.276-.026c-7.651-1.458-12.791-5.688-12.791-10.523,0-2.7,1.606-5.176,4.285-7.1-2.711-1.935-4.285-4.427-4.285-7.123,0-5.895,7.683-10.741,17.49-11.03a1.436,1.436,0,0,1,1.071.417,1.451,1.451,0,0,1,.444,1.051v12.464a1.473,1.473,0,0,1-1.417,1.467,24.863,24.863,0,0,0-11.1,2.722,22.284,22.284,0,0,0,6.84,2.331,1.461,1.461,0,0,1,1.206,1.443V415.39a1.47,1.47,0,0,1-1.469,1.469Zm-7.747-16.968c-2.586,1.727-4.139,3.971-4.139,6.418,0,4.251,4.754,8.014,11.831,9.362a.289.289,0,0,0,.343-.283V402.956a.284.284,0,0,0-.226-.282A22.827,22.827,0,0,1,600.45,399.892Zm12.215-17.649h-.009c-9.166.271-16.344,4.6-16.344,9.849,0,2.389,1.563,4.654,4.192,6.41a25.292,25.292,0,0,1,12.187-3.222.282.282,0,0,0,.268-.286V382.528a.286.286,0,0,0-.086-.2A.3.3,0,0,0,612.665,382.243Z" transform="translate(-595.13 -381.06)" fill="#e67164"/>
    <path id="Caminho_9" data-name="Caminho 9" d="M1068.729,515.963a4.5,4.5,0,0,0-4.7-4.253,4.925,4.925,0,0,0-3.492,1.411v-1.47h-1.213v11.166h1.213v-4.007a4.926,4.926,0,0,0,3.492,1.406A4.5,4.5,0,0,0,1068.729,515.963Zm-1.213,0a3.525,3.525,0,1,1-3.491-3.04A3.294,3.294,0,0,1,1067.516,515.963Z" transform="translate(-1004.064 -496.105)" fill="#e67164"/>
    <path id="Caminho_10" data-name="Caminho 10" d="M1161.606,512.07v1.42a4.927,4.927,0,0,0-3.491-1.406,4.275,4.275,0,1,0,0,8.506,4.924,4.924,0,0,0,3.491-1.406v1.323h1.213V512.07Zm-3.491,7.3a3.069,3.069,0,1,1,3.491-3.04A3.294,3.294,0,0,1,1158.114,519.373Z" transform="translate(-1086.954 -496.475)" fill="#e67164"/>
    <path id="Caminho_11" data-name="Caminho 11" d="M867.794,520.166a4.275,4.275,0,1,1,4.7-4.253A4.5,4.5,0,0,1,867.794,520.166Zm0-7.294a3.069,3.069,0,1,0,3.491,3.04A3.294,3.294,0,0,0,867.794,512.873Z" transform="translate(-831.193 -496.114)" fill="#e67164"/>
    <path id="Caminho_12" data-name="Caminho 12" d="M967.9,515.534a4.542,4.542,0,0,0-4.691-3.945A4.925,4.925,0,0,0,959.713,513V511.58H958.5v8.491h1.213v-4.228a3.525,3.525,0,0,1,6.983,0v4.228h1.213v-4.537Z" transform="translate(-915.245 -496.043)" fill="#e67164"/>
    <path id="Caminho_13" data-name="Caminho 13" d="M792.564,520.656a4.275,4.275,0,1,1,0-8.506,5,5,0,0,1,3.1,1.054l-.754.952a3.789,3.789,0,0,0-2.347-.79,3.069,3.069,0,1,0,0,6.08,3.83,3.83,0,0,0,1.99-.544l.628,1.038a5.047,5.047,0,0,1-2.613.717Z" transform="translate(-764.918 -496.545)" fill="#e67164"/>
    <path id="Caminho_14" data-name="Caminho 14" d="M1251.929,522.755h1.351l5.535-11.175h-1.351l-2.845,5.745-2.518-5.745h-1.321l3.138,7.16Z" transform="translate(-1172.733 -496.043)" fill="#e67164"/>
  </g>
  <text id="TECNOLOGIA_E_PAGAMENTOS_S_A" data-name="TECNOLOGIA E PAGAMENTOS S/A" transform="translate(23.151 32.981)" fill="#e67164" font-size="3" font-family="SegoeUI-Semibold, Segoe UI" font-weight="600"><tspan x="0" y="0">TECNOLOGIA E PAGAMENTOS S/A</tspan></text>
</svg>
