<svg xmlns="http://www.w3.org/2000/svg" width="24" height="24" viewBox="0 0 24 24">
  <g id="Grupo_227" data-name="Grupo 227" transform="translate(-4707 7)">
    <path id="Subtração_3" data-name="Subtração 3" d="M17,24H7a7.008,7.008,0,0,1-7-7V7A7.008,7.008,0,0,1,7,0H17a7.008,7.008,0,0,1,7,7V17A7.008,7.008,0,0,1,17,24ZM7,1A6.007,6.007,0,0,0,1,7V17a6.007,6.007,0,0,0,6,6H17a6.007,6.007,0,0,0,6-6V7a6.007,6.007,0,0,0-6-6Z" transform="translate(4707 -7)" fill="#e67164"/>
    <g id="youtube-icon" transform="translate(4704.385 -8.48)">
      <path id="Caminho_21" data-name="Caminho 21" d="M210.666,174.275l-6.817,4.428a.589.589,0,0,1-.849-.526v-8.859a.589.589,0,0,1,.849-.527l6.817,4.428a.59.59,0,0,1,0,1.057Z" transform="translate(-192.385 -160.25)" fill="#e67164"/>
    </g>
  </g>
</svg>
