<svg xmlns="http://www.w3.org/2000/svg" width="10.863" height="10.863" viewBox="0 0 10.863 10.863">
  <path id="whatsapp" d="M9.236,3.829a5.385,5.385,0,0,0-8.472,6.5L0,13.113l2.854-.749a5.367,5.367,0,0,0,2.573.655h0a5.435,5.435,0,0,0,5.434-5.383A5.4,5.4,0,0,0,9.236,3.829ZM5.429,12.111a4.466,4.466,0,0,1-2.279-.623l-.162-.1-1.692.444.451-1.651-.107-.17A4.483,4.483,0,1,1,9.954,7.635,4.524,4.524,0,0,1,5.429,12.111ZM7.883,8.76c-.133-.068-.8-.393-.919-.436s-.213-.068-.3.068-.347.436-.427.529-.158.1-.291.034a3.661,3.661,0,0,1-1.831-1.6c-.138-.238.138-.221.4-.735A.249.249,0,0,0,4.5,6.384c-.034-.068-.3-.73-.415-1s-.221-.226-.3-.23-.167,0-.257,0a.5.5,0,0,0-.359.167,1.511,1.511,0,0,0-.47,1.123,2.635,2.635,0,0,0,.548,1.392,6.01,6.01,0,0,0,2.3,2.032,2.632,2.632,0,0,0,1.615.337,1.378,1.378,0,0,0,.907-.64,1.125,1.125,0,0,0,.078-.64C8.106,8.86,8.016,8.826,7.883,8.76Z" transform="translate(0 -2.25)" fill="#e67164"/>
</svg>
